<mxfile host="app.diagrams.net" modified="2023-10-15T01:12:04.716Z" agent="Mozilla/5.0 (Macintosh; Intel Mac OS X 10_15_7) AppleWebKit/537.36 (KHTML, like Gecko) Chrome/117.0.0.0 Safari/537.36" etag="1YeHVibpnY_EqM3PnsJc" version="22.0.4" type="device" pages="2">
  <diagram name="data flow" id="IYNQmCgIshR-2NRnznrh">
    <mxGraphModel dx="1085" dy="624" grid="1" gridSize="10" guides="1" tooltips="1" connect="1" arrows="1" fold="1" page="1" pageScale="1" pageWidth="827" pageHeight="1169" math="0" shadow="0">
      <root>
        <mxCell id="0" />
        <mxCell id="1" parent="0" />
        <mxCell id="tv6PGRvhd9CO02DmxvT4-9" value="" style="edgeStyle=orthogonalEdgeStyle;rounded=0;orthogonalLoop=1;jettySize=auto;html=1;" edge="1" parent="1" source="tv6PGRvhd9CO02DmxvT4-2" target="tv6PGRvhd9CO02DmxvT4-8">
          <mxGeometry relative="1" as="geometry" />
        </mxCell>
        <mxCell id="tv6PGRvhd9CO02DmxvT4-10" value="(1)" style="edgeLabel;html=1;align=center;verticalAlign=middle;resizable=0;points=[];" vertex="1" connectable="0" parent="tv6PGRvhd9CO02DmxvT4-9">
          <mxGeometry x="-0.0091" y="3" relative="1" as="geometry">
            <mxPoint x="-3" y="-10" as="offset" />
          </mxGeometry>
        </mxCell>
        <mxCell id="tv6PGRvhd9CO02DmxvT4-2" value="Manifest Table" style="rounded=1;whiteSpace=wrap;html=1;fillColor=#f5f5f5;strokeColor=#666666;fontColor=#333333;" vertex="1" parent="1">
          <mxGeometry x="150" y="470" width="100" height="60" as="geometry" />
        </mxCell>
        <mxCell id="tv6PGRvhd9CO02DmxvT4-27" value="" style="edgeStyle=orthogonalEdgeStyle;rounded=0;orthogonalLoop=1;jettySize=auto;html=1;" edge="1" parent="1" source="tv6PGRvhd9CO02DmxvT4-3" target="tv6PGRvhd9CO02DmxvT4-26">
          <mxGeometry relative="1" as="geometry" />
        </mxCell>
        <mxCell id="tv6PGRvhd9CO02DmxvT4-28" value="(0)" style="edgeLabel;html=1;align=center;verticalAlign=middle;resizable=0;points=[];" vertex="1" connectable="0" parent="tv6PGRvhd9CO02DmxvT4-27">
          <mxGeometry x="-0.35" y="-1" relative="1" as="geometry">
            <mxPoint y="4" as="offset" />
          </mxGeometry>
        </mxCell>
        <mxCell id="tv6PGRvhd9CO02DmxvT4-3" value="Boarding Pass" style="rounded=1;whiteSpace=wrap;html=1;fillColor=#f5f5f5;strokeColor=#666666;fontColor=#333333;" vertex="1" parent="1">
          <mxGeometry x="270" y="470" width="100" height="60" as="geometry" />
        </mxCell>
        <mxCell id="tv6PGRvhd9CO02DmxvT4-18" value="" style="edgeStyle=orthogonalEdgeStyle;rounded=0;orthogonalLoop=1;jettySize=auto;html=1;" edge="1" parent="1" source="tv6PGRvhd9CO02DmxvT4-4" target="tv6PGRvhd9CO02DmxvT4-17">
          <mxGeometry relative="1" as="geometry" />
        </mxCell>
        <mxCell id="tv6PGRvhd9CO02DmxvT4-19" value="(3)" style="edgeLabel;html=1;align=center;verticalAlign=middle;resizable=0;points=[];" vertex="1" connectable="0" parent="tv6PGRvhd9CO02DmxvT4-18">
          <mxGeometry x="-0.0773" y="-2" relative="1" as="geometry">
            <mxPoint x="2" y="-7" as="offset" />
          </mxGeometry>
        </mxCell>
        <mxCell id="tv6PGRvhd9CO02DmxvT4-4" value="ID card" style="rounded=1;whiteSpace=wrap;html=1;fillColor=#f5f5f5;strokeColor=#666666;fontColor=#333333;" vertex="1" parent="1">
          <mxGeometry x="390" y="470" width="100" height="60" as="geometry" />
        </mxCell>
        <mxCell id="tv6PGRvhd9CO02DmxvT4-21" value="" style="edgeStyle=orthogonalEdgeStyle;rounded=0;orthogonalLoop=1;jettySize=auto;html=1;" edge="1" parent="1" source="tv6PGRvhd9CO02DmxvT4-5" target="tv6PGRvhd9CO02DmxvT4-20">
          <mxGeometry relative="1" as="geometry" />
        </mxCell>
        <mxCell id="tv6PGRvhd9CO02DmxvT4-22" value="(2)" style="edgeLabel;html=1;align=center;verticalAlign=middle;resizable=0;points=[];" vertex="1" connectable="0" parent="tv6PGRvhd9CO02DmxvT4-21">
          <mxGeometry x="-0.2591" relative="1" as="geometry">
            <mxPoint as="offset" />
          </mxGeometry>
        </mxCell>
        <mxCell id="tv6PGRvhd9CO02DmxvT4-5" value="Facial Video" style="rounded=1;whiteSpace=wrap;html=1;fillColor=#f5f5f5;strokeColor=#666666;fontColor=#333333;" vertex="1" parent="1">
          <mxGeometry x="510" y="470" width="100" height="60" as="geometry" />
        </mxCell>
        <mxCell id="tv6PGRvhd9CO02DmxvT4-24" value="" style="edgeStyle=orthogonalEdgeStyle;rounded=0;orthogonalLoop=1;jettySize=auto;html=1;" edge="1" parent="1" source="tv6PGRvhd9CO02DmxvT4-6" target="tv6PGRvhd9CO02DmxvT4-23">
          <mxGeometry relative="1" as="geometry" />
        </mxCell>
        <mxCell id="tv6PGRvhd9CO02DmxvT4-25" value="(7)" style="edgeLabel;html=1;align=center;verticalAlign=middle;resizable=0;points=[];" vertex="1" connectable="0" parent="tv6PGRvhd9CO02DmxvT4-24">
          <mxGeometry x="-0.2136" relative="1" as="geometry">
            <mxPoint as="offset" />
          </mxGeometry>
        </mxCell>
        <mxCell id="tv6PGRvhd9CO02DmxvT4-6" value="Baggage Images" style="rounded=1;whiteSpace=wrap;html=1;fillColor=#f5f5f5;strokeColor=#666666;fontColor=#333333;" vertex="1" parent="1">
          <mxGeometry x="630" y="470" width="100" height="60" as="geometry" />
        </mxCell>
        <mxCell id="tv6PGRvhd9CO02DmxvT4-32" style="edgeStyle=orthogonalEdgeStyle;rounded=0;orthogonalLoop=1;jettySize=auto;html=1;exitX=0.5;exitY=1;exitDx=0;exitDy=0;entryX=0.5;entryY=0;entryDx=0;entryDy=0;" edge="1" parent="1" source="tv6PGRvhd9CO02DmxvT4-8" target="tv6PGRvhd9CO02DmxvT4-15">
          <mxGeometry relative="1" as="geometry" />
        </mxCell>
        <mxCell id="tv6PGRvhd9CO02DmxvT4-52" style="edgeStyle=orthogonalEdgeStyle;orthogonalLoop=1;jettySize=auto;html=1;exitX=0.5;exitY=1;exitDx=0;exitDy=0;curved=1;" edge="1" parent="1" source="tv6PGRvhd9CO02DmxvT4-8" target="tv6PGRvhd9CO02DmxvT4-13">
          <mxGeometry relative="1" as="geometry">
            <Array as="points">
              <mxPoint x="200" y="760" />
              <mxPoint x="325" y="760" />
            </Array>
          </mxGeometry>
        </mxCell>
        <mxCell id="tv6PGRvhd9CO02DmxvT4-8" value="Recorded Flight Details" style="rounded=0;whiteSpace=wrap;html=1;fillColor=#fad9d5;strokeColor=#ae4132;" vertex="1" parent="1">
          <mxGeometry x="150" y="610" width="100" height="60" as="geometry" />
        </mxCell>
        <mxCell id="tv6PGRvhd9CO02DmxvT4-58" style="edgeStyle=orthogonalEdgeStyle;rounded=0;orthogonalLoop=1;jettySize=auto;html=1;exitX=0.5;exitY=1;exitDx=0;exitDy=0;entryX=0.5;entryY=0;entryDx=0;entryDy=0;" edge="1" parent="1" source="tv6PGRvhd9CO02DmxvT4-15" target="tv6PGRvhd9CO02DmxvT4-54">
          <mxGeometry relative="1" as="geometry" />
        </mxCell>
        <mxCell id="tv6PGRvhd9CO02DmxvT4-61" value="(8)" style="edgeLabel;html=1;align=center;verticalAlign=middle;resizable=0;points=[];" vertex="1" connectable="0" parent="tv6PGRvhd9CO02DmxvT4-58">
          <mxGeometry x="-0.3902" y="-1" relative="1" as="geometry">
            <mxPoint x="41" as="offset" />
          </mxGeometry>
        </mxCell>
        <mxCell id="tv6PGRvhd9CO02DmxvT4-15" value="Boarding Pass Validation" style="rhombus;whiteSpace=wrap;html=1;rounded=0;arcSize=16;strokeOpacity=100;fillColor=#fad9d5;strokeColor=#ae4132;" vertex="1" parent="1">
          <mxGeometry x="150" y="780" width="100" height="100" as="geometry" />
        </mxCell>
        <mxCell id="tv6PGRvhd9CO02DmxvT4-41" style="edgeStyle=orthogonalEdgeStyle;orthogonalLoop=1;jettySize=auto;html=1;exitX=0.5;exitY=1;exitDx=0;exitDy=0;entryX=0.495;entryY=0;entryDx=0;entryDy=0;entryPerimeter=0;curved=1;" edge="1" parent="1" source="tv6PGRvhd9CO02DmxvT4-17" target="tv6PGRvhd9CO02DmxvT4-30">
          <mxGeometry relative="1" as="geometry">
            <mxPoint x="560" y="760" as="targetPoint" />
            <Array as="points">
              <mxPoint x="440" y="700" />
              <mxPoint x="560" y="700" />
            </Array>
          </mxGeometry>
        </mxCell>
        <mxCell id="tv6PGRvhd9CO02DmxvT4-43" style="edgeStyle=orthogonalEdgeStyle;rounded=0;orthogonalLoop=1;jettySize=auto;html=1;exitX=0.5;exitY=1;exitDx=0;exitDy=0;entryX=0.5;entryY=0;entryDx=0;entryDy=0;" edge="1" parent="1" source="tv6PGRvhd9CO02DmxvT4-17" target="tv6PGRvhd9CO02DmxvT4-31">
          <mxGeometry relative="1" as="geometry" />
        </mxCell>
        <mxCell id="tv6PGRvhd9CO02DmxvT4-53" style="edgeStyle=orthogonalEdgeStyle;orthogonalLoop=1;jettySize=auto;html=1;exitX=0.5;exitY=1;exitDx=0;exitDy=0;entryX=0.5;entryY=0;entryDx=0;entryDy=0;curved=1;" edge="1" parent="1" source="tv6PGRvhd9CO02DmxvT4-17" target="tv6PGRvhd9CO02DmxvT4-13">
          <mxGeometry relative="1" as="geometry">
            <Array as="points">
              <mxPoint x="440" y="760" />
              <mxPoint x="325" y="760" />
            </Array>
          </mxGeometry>
        </mxCell>
        <mxCell id="tv6PGRvhd9CO02DmxvT4-17" value="Personal Info" style="rounded=0;whiteSpace=wrap;html=1;glass=0;fillColor=#b0e3e6;strokeColor=#0e8088;" vertex="1" parent="1">
          <mxGeometry x="390" y="610" width="100" height="60" as="geometry" />
        </mxCell>
        <mxCell id="tv6PGRvhd9CO02DmxvT4-38" style="edgeStyle=orthogonalEdgeStyle;rounded=0;orthogonalLoop=1;jettySize=auto;html=1;exitX=0.5;exitY=1;exitDx=0;exitDy=0;entryX=0.5;entryY=0;entryDx=0;entryDy=0;" edge="1" parent="1" source="tv6PGRvhd9CO02DmxvT4-20" target="tv6PGRvhd9CO02DmxvT4-30">
          <mxGeometry relative="1" as="geometry">
            <mxPoint x="560.4545454545453" y="770" as="targetPoint" />
          </mxGeometry>
        </mxCell>
        <mxCell id="tv6PGRvhd9CO02DmxvT4-20" value="Face Identity" style="rounded=0;whiteSpace=wrap;html=1;fillColor=#b0e3e6;strokeColor=#0e8088;" vertex="1" parent="1">
          <mxGeometry x="510" y="610" width="100" height="60" as="geometry" />
        </mxCell>
        <mxCell id="tv6PGRvhd9CO02DmxvT4-47" style="edgeStyle=orthogonalEdgeStyle;rounded=0;orthogonalLoop=1;jettySize=auto;html=1;exitX=0.5;exitY=1;exitDx=0;exitDy=0;entryX=0.5;entryY=0;entryDx=0;entryDy=0;" edge="1" parent="1" source="tv6PGRvhd9CO02DmxvT4-23" target="tv6PGRvhd9CO02DmxvT4-29">
          <mxGeometry relative="1" as="geometry" />
        </mxCell>
        <mxCell id="tv6PGRvhd9CO02DmxvT4-50" value="(7)" style="edgeLabel;html=1;align=center;verticalAlign=middle;resizable=0;points=[];" vertex="1" connectable="0" parent="tv6PGRvhd9CO02DmxvT4-47">
          <mxGeometry x="-0.3785" y="4" relative="1" as="geometry">
            <mxPoint x="-4" y="15" as="offset" />
          </mxGeometry>
        </mxCell>
        <mxCell id="tv6PGRvhd9CO02DmxvT4-23" value="Lugguge Check" style="rounded=0;whiteSpace=wrap;html=1;fillColor=#d5e8d4;strokeColor=#82b366;" vertex="1" parent="1">
          <mxGeometry x="630" y="610" width="100" height="60" as="geometry" />
        </mxCell>
        <mxCell id="tv6PGRvhd9CO02DmxvT4-33" style="edgeStyle=orthogonalEdgeStyle;orthogonalLoop=1;jettySize=auto;html=1;exitX=0.5;exitY=1;exitDx=0;exitDy=0;entryX=0.5;entryY=0;entryDx=0;entryDy=0;curved=1;" edge="1" parent="1" source="tv6PGRvhd9CO02DmxvT4-26" target="tv6PGRvhd9CO02DmxvT4-15">
          <mxGeometry relative="1" as="geometry">
            <Array as="points">
              <mxPoint x="320" y="700" />
              <mxPoint x="200" y="700" />
            </Array>
          </mxGeometry>
        </mxCell>
        <mxCell id="tv6PGRvhd9CO02DmxvT4-36" style="edgeStyle=orthogonalEdgeStyle;orthogonalLoop=1;jettySize=auto;html=1;entryX=0.5;entryY=0;entryDx=0;entryDy=0;exitX=0.5;exitY=1;exitDx=0;exitDy=0;curved=1;" edge="1" parent="1" source="tv6PGRvhd9CO02DmxvT4-26" target="tv6PGRvhd9CO02DmxvT4-31">
          <mxGeometry relative="1" as="geometry">
            <mxPoint x="330" y="760" as="targetPoint" />
            <Array as="points">
              <mxPoint x="320" y="720" />
              <mxPoint x="440" y="720" />
            </Array>
          </mxGeometry>
        </mxCell>
        <mxCell id="tv6PGRvhd9CO02DmxvT4-26" value="Flight Details" style="rounded=0;whiteSpace=wrap;html=1;fillColor=#fad9d5;strokeColor=#ae4132;" vertex="1" parent="1">
          <mxGeometry x="270" y="610" width="100" height="60" as="geometry" />
        </mxCell>
        <mxCell id="tv6PGRvhd9CO02DmxvT4-60" style="edgeStyle=orthogonalEdgeStyle;rounded=0;orthogonalLoop=1;jettySize=auto;html=1;exitX=0.5;exitY=1;exitDx=0;exitDy=0;entryX=0.5;entryY=0;entryDx=0;entryDy=0;" edge="1" parent="1" source="tv6PGRvhd9CO02DmxvT4-29" target="tv6PGRvhd9CO02DmxvT4-54">
          <mxGeometry relative="1" as="geometry" />
        </mxCell>
        <mxCell id="tv6PGRvhd9CO02DmxvT4-63" value="(10)" style="edgeLabel;html=1;align=center;verticalAlign=middle;resizable=0;points=[];" vertex="1" connectable="0" parent="tv6PGRvhd9CO02DmxvT4-60">
          <mxGeometry x="-0.0534" y="1" relative="1" as="geometry">
            <mxPoint as="offset" />
          </mxGeometry>
        </mxCell>
        <mxCell id="tv6PGRvhd9CO02DmxvT4-29" value="Lugguge Validation" style="rhombus;whiteSpace=wrap;html=1;rounded=0;arcSize=16;strokeOpacity=100;fillColor=#d5e8d4;strokeColor=#82b366;" vertex="1" parent="1">
          <mxGeometry x="630" y="780" width="100" height="100" as="geometry" />
        </mxCell>
        <mxCell id="tv6PGRvhd9CO02DmxvT4-59" style="edgeStyle=orthogonalEdgeStyle;rounded=0;orthogonalLoop=1;jettySize=auto;html=1;exitX=0.5;exitY=1;exitDx=0;exitDy=0;entryX=0.5;entryY=0;entryDx=0;entryDy=0;" edge="1" parent="1" source="tv6PGRvhd9CO02DmxvT4-35" target="tv6PGRvhd9CO02DmxvT4-54">
          <mxGeometry relative="1" as="geometry" />
        </mxCell>
        <mxCell id="tv6PGRvhd9CO02DmxvT4-62" value="(9)" style="edgeLabel;html=1;align=center;verticalAlign=middle;resizable=0;points=[];" vertex="1" connectable="0" parent="tv6PGRvhd9CO02DmxvT4-59">
          <mxGeometry x="-0.413" y="1" relative="1" as="geometry">
            <mxPoint as="offset" />
          </mxGeometry>
        </mxCell>
        <mxCell id="tv6PGRvhd9CO02DmxvT4-35" value="Identity Validation" style="swimlane;whiteSpace=wrap;html=1;startSize=19;" vertex="1" parent="1">
          <mxGeometry x="270" y="731" width="350" height="159" as="geometry" />
        </mxCell>
        <mxCell id="tv6PGRvhd9CO02DmxvT4-31" value="Name Validation" style="rhombus;whiteSpace=wrap;html=1;rounded=0;arcSize=16;strokeOpacity=100;fillColor=#b0e3e6;strokeColor=#0e8088;" vertex="1" parent="tv6PGRvhd9CO02DmxvT4-35">
          <mxGeometry x="120" y="49" width="100" height="100" as="geometry" />
        </mxCell>
        <mxCell id="tv6PGRvhd9CO02DmxvT4-13" value="DoB Validation" style="rhombus;whiteSpace=wrap;html=1;rounded=0;arcSize=16;strokeOpacity=100;fillColor=#b0e3e6;strokeColor=#0e8088;" vertex="1" parent="tv6PGRvhd9CO02DmxvT4-35">
          <mxGeometry x="10" y="49" width="90" height="100" as="geometry" />
        </mxCell>
        <mxCell id="tv6PGRvhd9CO02DmxvT4-30" value="Person Validation" style="rhombus;whiteSpace=wrap;html=1;rounded=0;arcSize=16;strokeOpacity=100;fillColor=#b0e3e6;strokeColor=#0e8088;" vertex="1" parent="tv6PGRvhd9CO02DmxvT4-35">
          <mxGeometry x="243" y="49" width="95" height="100" as="geometry" />
        </mxCell>
        <mxCell id="tv6PGRvhd9CO02DmxvT4-39" value="(4)" style="text;html=1;align=center;verticalAlign=middle;resizable=0;points=[];autosize=1;strokeColor=none;fillColor=none;" vertex="1" parent="1">
          <mxGeometry x="530" y="670" width="40" height="30" as="geometry" />
        </mxCell>
        <mxCell id="tv6PGRvhd9CO02DmxvT4-42" value="(5)" style="text;html=1;align=center;verticalAlign=middle;resizable=0;points=[];autosize=1;strokeColor=none;fillColor=none;" vertex="1" parent="1">
          <mxGeometry x="190" y="670" width="40" height="30" as="geometry" />
        </mxCell>
        <mxCell id="tv6PGRvhd9CO02DmxvT4-54" value="Digital Dashboard" style="ellipse;whiteSpace=wrap;html=1;aspect=fixed;fillColor=#fff2cc;strokeColor=#d6b656;" vertex="1" parent="1">
          <mxGeometry x="400" y="960" width="90" height="90" as="geometry" />
        </mxCell>
        <mxCell id="tv6PGRvhd9CO02DmxvT4-56" value="" style="verticalLabelPosition=bottom;verticalAlign=top;html=1;shape=mxgraph.basic.tick;fillColor=#d5e8d4;strokeColor=#82b366;" vertex="1" parent="1">
          <mxGeometry x="435" y="1020" width="20" height="20" as="geometry" />
        </mxCell>
        <mxCell id="tv6PGRvhd9CO02DmxvT4-46" value="(6)" style="text;html=1;align=center;verticalAlign=middle;resizable=0;points=[];autosize=1;strokeColor=none;fillColor=none;" vertex="1" parent="1">
          <mxGeometry x="400" y="690" width="40" height="30" as="geometry" />
        </mxCell>
        <mxCell id="tv6PGRvhd9CO02DmxvT4-64" value="(6)" style="text;html=1;align=center;verticalAlign=middle;resizable=0;points=[];autosize=1;strokeColor=none;fillColor=none;" vertex="1" parent="1">
          <mxGeometry x="210" y="720" width="40" height="30" as="geometry" />
        </mxCell>
        <mxCell id="tv6PGRvhd9CO02DmxvT4-71" value="" style="group" vertex="1" connectable="0" parent="1">
          <mxGeometry x="770" y="430" width="480" height="610" as="geometry" />
        </mxCell>
        <mxCell id="tv6PGRvhd9CO02DmxvT4-7" value="&lt;ol style=&quot;margin-top:0cm&quot; start=&quot;1&quot; type=&quot;1&quot;&gt;&lt;br&gt; &lt;li class=&quot;MsoNormal&quot; style=&quot;line-height:normal;mso-pagination:none;mso-list:&lt;br/&gt;     l0 level1 lfo1&quot;&gt;&lt;span lang=&quot;EN&quot; style=&quot;font-size:12.0pt&quot;&gt;Manifest table has&lt;br&gt;     list of all passengers in the plane&lt;/span&gt;&lt;/li&gt;&lt;br&gt; &lt;li class=&quot;MsoNormal&quot; style=&quot;line-height:normal;mso-pagination:none;mso-list:&lt;br/&gt;     l0 level1 lfo1&quot;&gt;&lt;span lang=&quot;EN&quot; style=&quot;font-size:12.0pt&quot;&gt;Video input is used&lt;br&gt;     to identify the face&lt;/span&gt;&lt;/li&gt;&lt;br&gt; &lt;li class=&quot;MsoNormal&quot; style=&quot;line-height:normal;mso-pagination:none;mso-list:&lt;br/&gt;     l0 level1 lfo1&quot;&gt;&lt;span lang=&quot;EN&quot; style=&quot;font-size:12.0pt&quot;&gt;ID card info is&lt;br&gt;     used to setup the passenger identity&lt;/span&gt;&lt;/li&gt;&lt;br&gt; &lt;li class=&quot;MsoNormal&quot; style=&quot;line-height:normal;mso-pagination:none;mso-list:&lt;br/&gt;     l0 level1 lfo1&quot;&gt;&lt;span lang=&quot;EN&quot; style=&quot;font-size:12.0pt&quot;&gt;Face from ID is&lt;br&gt;     matched with face from video in “Identity Validation”&lt;/span&gt;&lt;/li&gt;&lt;br&gt; &lt;li class=&quot;MsoNormal&quot; style=&quot;line-height:normal;mso-pagination:none;mso-list:&lt;br/&gt;     l0 level1 lfo1&quot;&gt;&lt;span lang=&quot;EN&quot; style=&quot;font-size:12.0pt&quot;&gt;Boarding pass data&lt;br&gt;     is matched with the flight details&lt;/span&gt;&lt;/li&gt;&lt;br&gt; &lt;li class=&quot;MsoNormal&quot; style=&quot;line-height:normal;mso-pagination:none;mso-list:&lt;br/&gt;     l0 level1 lfo1&quot;&gt;&lt;span lang=&quot;EN&quot; style=&quot;font-size:12.0pt&quot;&gt;Flight details are matched with Identity validation for personal info checking&lt;/span&gt;&lt;/li&gt;&lt;br&gt; &lt;li class=&quot;MsoNormal&quot; style=&quot;line-height:normal;mso-pagination:none;mso-list:&lt;br/&gt;     l0 level1 lfo1&quot;&gt;&lt;span lang=&quot;EN&quot; style=&quot;font-size:12.0pt&quot;&gt;Baggage data is&lt;br&gt;     used for language check&lt;/span&gt;&lt;/li&gt;&lt;br&gt; &lt;li class=&quot;MsoNormal&quot; style=&quot;line-height:normal;mso-pagination:none;mso-list:&lt;br/&gt;     l0 level1 lfo1&quot;&gt;&lt;span lang=&quot;EN&quot; style=&quot;font-size:12.0pt&quot;&gt;Boarding pass&lt;br&gt;     validation is done&lt;/span&gt;&lt;/li&gt;&lt;br&gt; &lt;li class=&quot;MsoNormal&quot; style=&quot;line-height:normal;mso-pagination:none;mso-list:&lt;br/&gt;     l0 level1 lfo1&quot;&gt;&lt;span lang=&quot;EN&quot; style=&quot;font-size:12.0pt&quot;&gt;Identity Validation&lt;br&gt;     is done&lt;/span&gt;&lt;/li&gt;&lt;li style=&quot;border-color: var(--border-color); line-height: normal;&quot; class=&quot;MsoNormal&quot;&gt;&lt;span style=&quot;border-color: var(--border-color); font-size: 12pt;&quot; lang=&quot;EN&quot;&gt;Baggage check validation is done&lt;/span&gt;&lt;/li&gt;&lt;br&gt;&lt;/ol&gt;&lt;br&gt;" style="text;whiteSpace=wrap;html=1;" vertex="1" parent="tv6PGRvhd9CO02DmxvT4-71">
          <mxGeometry y="50" width="430" height="560" as="geometry" />
        </mxCell>
        <mxCell id="tv6PGRvhd9CO02DmxvT4-65" value="0." style="text;html=1;align=center;verticalAlign=middle;resizable=0;points=[];autosize=1;strokeColor=none;fillColor=none;" vertex="1" parent="tv6PGRvhd9CO02DmxvT4-71">
          <mxGeometry x="18" y="30" width="30" height="30" as="geometry" />
        </mxCell>
        <mxCell id="tv6PGRvhd9CO02DmxvT4-66" value="&lt;font style=&quot;font-size: 16px;&quot;&gt;Flight details extracted from Boarding Pass&lt;/font&gt;" style="text;html=1;align=center;verticalAlign=middle;resizable=0;points=[];autosize=1;strokeColor=none;fillColor=none;strokeWidth=2;" vertex="1" parent="tv6PGRvhd9CO02DmxvT4-71">
          <mxGeometry x="29" y="30" width="330" height="30" as="geometry" />
        </mxCell>
      </root>
    </mxGraphModel>
  </diagram>
  <diagram id="8MWnmIBV1rx4q_BelVf0" name="architecture_diagram">
    <mxGraphModel dx="995" dy="570" grid="0" gridSize="10" guides="1" tooltips="1" connect="1" arrows="1" fold="1" page="1" pageScale="1" pageWidth="827" pageHeight="1169" math="0" shadow="0">
      <root>
        <mxCell id="0" />
        <mxCell id="1" parent="0" />
        <mxCell id="XOhniQMsusdcmuid-VrU-4" style="edgeStyle=orthogonalEdgeStyle;rounded=0;orthogonalLoop=1;jettySize=auto;html=1;exitX=0.5;exitY=0;exitDx=0;exitDy=0;entryX=0.5;entryY=1;entryDx=0;entryDy=0;" edge="1" parent="1" source="9hQQM3p0fhg6IQ-z3Jsr-3" target="9hQQM3p0fhg6IQ-z3Jsr-10">
          <mxGeometry relative="1" as="geometry" />
        </mxCell>
        <mxCell id="9hQQM3p0fhg6IQ-z3Jsr-3" value="Facial Video&amp;nbsp;" style="rounded=1;whiteSpace=wrap;html=1;fillColor=#e1d5e7;strokeColor=#9673a6;" vertex="1" parent="1">
          <mxGeometry x="262" y="530" width="70" height="60" as="geometry" />
        </mxCell>
        <mxCell id="XOhniQMsusdcmuid-VrU-3" style="edgeStyle=orthogonalEdgeStyle;rounded=0;orthogonalLoop=1;jettySize=auto;html=1;exitX=0.5;exitY=0;exitDx=0;exitDy=0;entryX=0.5;entryY=1;entryDx=0;entryDy=0;" edge="1" parent="1" source="9hQQM3p0fhg6IQ-z3Jsr-4" target="9hQQM3p0fhg6IQ-z3Jsr-7">
          <mxGeometry relative="1" as="geometry" />
        </mxCell>
        <mxCell id="9hQQM3p0fhg6IQ-z3Jsr-4" value="ID Card" style="rounded=1;whiteSpace=wrap;html=1;fillColor=#f8cecc;strokeColor=#b85450;" vertex="1" parent="1">
          <mxGeometry x="354.5" y="530" width="70" height="60" as="geometry" />
        </mxCell>
        <mxCell id="XOhniQMsusdcmuid-VrU-2" style="edgeStyle=orthogonalEdgeStyle;rounded=0;orthogonalLoop=1;jettySize=auto;html=1;exitX=0.5;exitY=0;exitDx=0;exitDy=0;entryX=0.5;entryY=1;entryDx=0;entryDy=0;" edge="1" parent="1" source="9hQQM3p0fhg6IQ-z3Jsr-5" target="9hQQM3p0fhg6IQ-z3Jsr-9">
          <mxGeometry relative="1" as="geometry" />
        </mxCell>
        <mxCell id="9hQQM3p0fhg6IQ-z3Jsr-20" style="edgeStyle=orthogonalEdgeStyle;orthogonalLoop=1;jettySize=auto;html=1;exitX=0.5;exitY=0;exitDx=0;exitDy=0;entryX=0.5;entryY=1;entryDx=0;entryDy=0;strokeColor=default;curved=1;" edge="1" parent="1" source="9hQQM3p0fhg6IQ-z3Jsr-6" target="9hQQM3p0fhg6IQ-z3Jsr-12">
          <mxGeometry relative="1" as="geometry" />
        </mxCell>
        <mxCell id="9hQQM3p0fhg6IQ-z3Jsr-7" value="ID Form Recognizer" style="shape=hexagon;perimeter=hexagonPerimeter2;whiteSpace=wrap;html=1;fixedSize=1;" vertex="1" parent="1">
          <mxGeometry x="343.75" y="430" width="91.5" height="60" as="geometry" />
        </mxCell>
        <mxCell id="9hQQM3p0fhg6IQ-z3Jsr-9" value="Custom Form Recognizer" style="shape=hexagon;perimeter=hexagonPerimeter2;whiteSpace=wrap;html=1;fixedSize=1;" vertex="1" parent="1">
          <mxGeometry x="437" y="430" width="91.5" height="60" as="geometry" />
        </mxCell>
        <mxCell id="9hQQM3p0fhg6IQ-z3Jsr-10" value="Video Analyzer" style="shape=hexagon;perimeter=hexagonPerimeter2;whiteSpace=wrap;html=1;fixedSize=1;" vertex="1" parent="1">
          <mxGeometry x="251.25" y="430" width="91.5" height="60" as="geometry" />
        </mxCell>
        <mxCell id="9hQQM3p0fhg6IQ-z3Jsr-12" value="Custom Vision" style="shape=hexagon;perimeter=hexagonPerimeter2;whiteSpace=wrap;html=1;fixedSize=1;" vertex="1" parent="1">
          <mxGeometry x="530" y="430" width="91.5" height="60" as="geometry" />
        </mxCell>
        <mxCell id="9hQQM3p0fhg6IQ-z3Jsr-14" value="Architecture Diagram" style="swimlane;childLayout=stackLayout;resizeParent=1;resizeParentMax=0;horizontal=1;startSize=20;horizontalStack=0;html=1;fillColor=#b1ddf0;strokeColor=#10739e;" vertex="1" parent="1">
          <mxGeometry x="110" y="250" width="560" height="380" as="geometry" />
        </mxCell>
        <mxCell id="9hQQM3p0fhg6IQ-z3Jsr-15" value="Storage Layer" style="swimlane;startSize=20;horizontal=0;html=1;" vertex="1" parent="9hQQM3p0fhg6IQ-z3Jsr-14">
          <mxGeometry y="20" width="560" height="120" as="geometry" />
        </mxCell>
        <mxCell id="XOhniQMsusdcmuid-VrU-13" value="Azure Blob Storage" style="shape=datastore;whiteSpace=wrap;html=1;fillColor=#fad7ac;strokeColor=#b46504;" vertex="1" parent="9hQQM3p0fhg6IQ-z3Jsr-15">
          <mxGeometry x="53.5" y="15" width="80" height="80" as="geometry" />
        </mxCell>
        <mxCell id="9hQQM3p0fhg6IQ-z3Jsr-16" value="Processing Layer" style="swimlane;startSize=20;horizontal=0;html=1;" vertex="1" parent="9hQQM3p0fhg6IQ-z3Jsr-14">
          <mxGeometry y="140" width="560" height="120" as="geometry" />
        </mxCell>
        <mxCell id="9hQQM3p0fhg6IQ-z3Jsr-11" value="FaceAPI" style="shape=hexagon;perimeter=hexagonPerimeter2;whiteSpace=wrap;html=1;fixedSize=1;" vertex="1" parent="9hQQM3p0fhg6IQ-z3Jsr-16">
          <mxGeometry x="47.75" y="40" width="91.5" height="60" as="geometry" />
        </mxCell>
        <mxCell id="9hQQM3p0fhg6IQ-z3Jsr-17" value="Data Input Layer" style="swimlane;startSize=20;horizontal=0;html=1;" vertex="1" parent="9hQQM3p0fhg6IQ-z3Jsr-14">
          <mxGeometry y="260" width="560" height="120" as="geometry" />
        </mxCell>
        <mxCell id="9hQQM3p0fhg6IQ-z3Jsr-6" value="Baggage Images" style="rounded=1;whiteSpace=wrap;html=1;fillColor=#fff2cc;strokeColor=#d6b656;" vertex="1" parent="9hQQM3p0fhg6IQ-z3Jsr-17">
          <mxGeometry x="430" y="20" width="70" height="60" as="geometry" />
        </mxCell>
        <mxCell id="9hQQM3p0fhg6IQ-z3Jsr-5" value="Boarding Pass" style="rounded=1;whiteSpace=wrap;html=1;fillColor=#dae8fc;strokeColor=#6c8ebf;" vertex="1" parent="9hQQM3p0fhg6IQ-z3Jsr-17">
          <mxGeometry x="337.75" y="20" width="70" height="60" as="geometry" />
        </mxCell>
        <mxCell id="9hQQM3p0fhg6IQ-z3Jsr-2" value="Manifest Table" style="rounded=1;whiteSpace=wrap;html=1;fillColor=#fad9d5;strokeColor=#ae4132;" vertex="1" parent="9hQQM3p0fhg6IQ-z3Jsr-17">
          <mxGeometry x="58.5" y="20" width="70" height="60" as="geometry" />
        </mxCell>
        <mxCell id="XOhniQMsusdcmuid-VrU-5" style="edgeStyle=orthogonalEdgeStyle;rounded=0;orthogonalLoop=1;jettySize=auto;html=1;exitX=0.5;exitY=0;exitDx=0;exitDy=0;entryX=0.5;entryY=1;entryDx=0;entryDy=0;" edge="1" parent="9hQQM3p0fhg6IQ-z3Jsr-14" source="9hQQM3p0fhg6IQ-z3Jsr-2" target="9hQQM3p0fhg6IQ-z3Jsr-11">
          <mxGeometry relative="1" as="geometry" />
        </mxCell>
        <mxCell id="XOhniQMsusdcmuid-VrU-16" style="edgeStyle=orthogonalEdgeStyle;rounded=0;orthogonalLoop=1;jettySize=auto;html=1;exitX=0.5;exitY=1;exitDx=0;exitDy=0;entryX=0.5;entryY=0;entryDx=0;entryDy=0;" edge="1" parent="9hQQM3p0fhg6IQ-z3Jsr-14" source="XOhniQMsusdcmuid-VrU-13" target="9hQQM3p0fhg6IQ-z3Jsr-11">
          <mxGeometry relative="1" as="geometry" />
        </mxCell>
        <mxCell id="XOhniQMsusdcmuid-VrU-14" style="edgeStyle=orthogonalEdgeStyle;orthogonalLoop=1;jettySize=auto;html=1;exitX=1;exitY=0.5;exitDx=0;exitDy=0;entryX=0.5;entryY=0;entryDx=0;entryDy=0;curved=1;" edge="1" parent="1" source="XOhniQMsusdcmuid-VrU-13" target="9hQQM3p0fhg6IQ-z3Jsr-9">
          <mxGeometry relative="1" as="geometry" />
        </mxCell>
        <mxCell id="XOhniQMsusdcmuid-VrU-15" style="edgeStyle=orthogonalEdgeStyle;orthogonalLoop=1;jettySize=auto;html=1;exitX=1;exitY=0.5;exitDx=0;exitDy=0;entryX=0.5;entryY=0;entryDx=0;entryDy=0;curved=1;" edge="1" parent="1" source="XOhniQMsusdcmuid-VrU-13" target="9hQQM3p0fhg6IQ-z3Jsr-12">
          <mxGeometry relative="1" as="geometry" />
        </mxCell>
      </root>
    </mxGraphModel>
  </diagram>
</mxfile>
